<svg width="30" height="24" viewBox="0 0 30 24" fill="none" xmlns="http://www.w3.org/2000/svg">
<path d="M29 3.80098C28.9979 3.05902 28.7022 2.34805 28.1776 1.82341C27.6529 1.29876 26.942 1.00309 26.2 1.00098H3.8C3.05804 1.00309 2.34708 1.29876 1.82243 1.82341C1.29779 2.34805 1.00211 3.05902 1 3.80098V20.601C1.00211 21.3429 1.29779 22.0539 1.82243 22.5785C2.34708 23.1032 3.05804 23.3989 3.8 23.401H26.2C26.942 23.3989 27.6529 23.1032 28.1776 22.5785C28.7022 22.0539 28.9979 21.3429 29 20.601V3.80098ZM26.2 3.80098L15 10.801L3.8 3.80098H26.2ZM26.2 20.601H3.8V6.60098L15 13.601L26.2 6.60098V20.601Z" fill="#005BAC" stroke="#005BAC"/>
</svg>
