<svg xmlns="http://www.w3.org/2000/svg" width="298.2" height="122.503" viewBox="0 0 298.2 122.503">
  <g id="Group_3885" data-name="Group 3885" transform="translate(20638.635 23176)">
    <path id="Path_2895" data-name="Path 2895" d="M235.069,72.355l12.588-5.3,5.4,11.069-13.228,5.4Z" transform="translate(-20801.643 -23218.068)" fill="#ffb6b6"/>
    <path id="Path_2896" data-name="Path 2896" d="M235.069,72.355l12.588-5.3,5.4,11.069-13.228,5.4Z" transform="translate(-20801.643 -23218.068)" fill="#fee1c9"/>
    <path id="Path_2897" data-name="Path 2897" d="M156.688,68.137l12.418,14.308s-8.639,27.266-17.278,29.7-24.567,14.308-24.567,14.308l-19.977-12.958L117,99.183s23.487-32.126,29.7-32.126A39.9,39.9,0,0,1,156.688,68.137Z" transform="translate(-20721.471 -23218.068)" fill="#dde7fe"/>
    <path id="Path_2898" data-name="Path 2898" d="M118.688,235.048H89.781L87.953,232.6l-7.462-9.975-1.717-2.295s-6.479-11.878-5.129-22.677S89.033,184.43,89.033,184.43h.578l17.186,15.1-1.026,14.054,5.442,9.044Z" transform="translate(-20700.252 -23291.709)" fill="#383838"/>
    <path id="Path_2899" data-name="Path 2899" d="M120.1,300.959h-7.748V289.486Z" transform="translate(-20724.658 -23357.623)" fill="#2f2e41"/>
    <path id="Path_2900" data-name="Path 2900" d="M678.868,104.9l2.89,18.026-18.258.236V107.491Z" transform="translate(-21070.434 -23241.814)" fill="#ffb6b6"/>
    <path id="Path_2901" data-name="Path 2901" d="M678.868,104.9l2.89,18.026-18.258.236V107.491Z" transform="translate(-21070.434 -23241.814)" fill="#fee1c9"/>
    <path id="Path_2902" data-name="Path 2902" d="M734.9,242.931l-.964,5-2.392,12.418H683.5c.375-2.783.888-6.79,1.436-11.114.054-.432.111-.867.164-1.3,1.374-10.872,2.878-23.174,2.878-23.174l6.317.767,12.256,1.485,4.994.6,13.374,1.623A11.589,11.589,0,0,1,734.9,242.931Z" transform="translate(-21082.982 -23317.008)" fill="#f2f2f2"/>
    <path id="Path_2903" data-name="Path 2903" d="M495.087,242.931l-.964,5-2.392,12.418H443.681c.375-2.783.888-6.79,1.436-11.114.054-.432.111-.867.165-1.3,1.374-10.872,2.878-23.174,2.878-23.174l6.317.767,12.256,1.485,4.994.6,13.374,1.623A11.589,11.589,0,0,1,495.087,242.931Z" transform="translate(-20932.52 -23317.008)" fill="#383838"/>
    <path id="Path_2904" data-name="Path 2904" d="M720.261,312.391H694.2c.4-.467.621-.737.621-.737l7.813-1.29,16.1-2.657S719.465,309.605,720.261,312.391Z" transform="translate(-21089.695 -23369.055)" fill="#2f2e41"/>
    <path id="Path_2905" data-name="Path 2905" d="M601.65,301.988H562.292q.587-1.166,1.212-2.335a20.58,20.58,0,0,1,1.779-2.789,16.842,16.842,0,0,1,1.3-1.509,13.684,13.684,0,0,1,4.236-3c5.359-2.411,11.673-.934,17.051,1.469a50.559,50.559,0,0,1,5.561,2.937,58.894,58.894,0,0,1,6.053,4.211c.324.256.5.4.5.4Z" transform="translate(-21006.939 -23358.648)" fill="#2f2e41"/>
    <path id="Path_2906" data-name="Path 2906" d="M574.722,315.773h-5.583l1.471-1.709.831-.966.357.289Z" transform="translate(-21011.236 -23372.438)" fill="#ffb6b6"/>
    <path id="Path_2907" data-name="Path 2907" d="M679.6,205.538H631.522l2.092-5.227,2.875-7.192,1.444-3.612-1.193-5.078s-.588-.416-1.485-1.164c-3.193-2.646-10.3-9.46-8.668-16.457,1.857-7.964,4.19-23.484,4.684-26.829.062-.418.095-.645.095-.645l6.938-1.7.229-.057.745-.184h18.584l13.668,9.257,0,.1-.834,25.45-.356,10.888a14.4,14.4,0,0,0-.327,4.012,18.844,18.844,0,0,0,1.258,6.023,21.737,21.737,0,0,0,5.04,7.586,12.7,12.7,0,0,1,3.288,4.832Z" transform="translate(-21047.121 -23262.201)" fill="#dde7fe"/>
    <path id="Path_2908" data-name="Path 2908" d="M696.526,187.848c-.456,3.742-.894,6.4-.894,6.4l-4.784,7.894-3.65,6.023-6.3,10.391-.923,1.525-.659.5H659.56l.945-1.015,9.411-10.1,1.217-1.3,1.974-2.119,6.169-20.288,7.27-23.911a10.014,10.014,0,0,1,5.821-.054,6.885,6.885,0,0,1,4.036,3.636C698.369,169.367,697.411,180.624,696.526,187.848Z" transform="translate(-21067.963 -23277.248)" fill="#dde7fe"/>
    <path id="Path_2909" data-name="Path 2909" d="M602.048,176.154l-5.675,11.117-5.03,9.854-2.173,4.255-.856,1.679-7.335,6.485H564.371l2.738-3.4,1.018-1.269,3.993-4.962,2.241-2.786,6.082-7.564,1.622-34.452a11.834,11.834,0,0,1,10.29-11.117l.034-.006a7.693,7.693,0,0,1,7.032,1.712c.078.073.154.151.23.232a8.077,8.077,0,0,1,1.069,1.428c.032.054.065.111.094.167a5.745,5.745,0,0,1,.27.564c2.892,6.733.964,28.066.964,28.066Z" transform="translate(-21008.242 -23266.203)" fill="#dde7fe"/>
    <path id="Path_2910" data-name="Path 2910" d="M449.677,95.766,461.011,111.8l-19.77.59-2.122-15.063Z" transform="translate(-20929.666 -23236.084)" fill="#a0616a"/>
    <path id="Path_2911" data-name="Path 2911" d="M449.677,95.766,461.011,111.8l-19.77.59-2.122-15.063Z" transform="translate(-20929.666 -23236.084)" fill="#fee1c9"/>
    <path id="uuid-b14ece9b-aa3d-4fe4-9d8a-4500bc16dcc4-79" d="M300.037,174.619c-1.454-4.2-4.8-6.845-7.468-5.92s-3.654,5.077-2.2,9.274a11.113,11.113,0,0,0,2.781,4.451l6.386,17.7,8.241-3.174-7.171-17.11A11.113,11.113,0,0,0,300.037,174.619Z" transform="translate(-20835.916 -23281.721)" fill="#fee1c9"/>
    <path id="Path_2912" data-name="Path 2912" d="M433.118,137.635l-.016,16.336L431.583,160l-3.126,12.41-2.276,11.414-1.7,8.5-.6,3.037q-.685.458-1.363.877H383.03a30.367,30.367,0,0,1-3.5-2.395,13.316,13.316,0,0,0,1.331-1.52c1.2-1.582,2.648-4.174,1.76-6.649a4.485,4.485,0,0,1-.178-1.855c.362-4.649,5.237-12.51,5.237-12.51l-1.01-11.668-.443-5.113,3.122-24.931,10.175-5.915,1.757-.17,17.34-.937,7.167.413.327.089,7,14.548Z" transform="translate(-20892.279 -23252.906)" fill="#fcc64d"/>
    <g id="Group_893" data-name="Group 893" transform="translate(-20470.145 -23129.965)">
      <path id="Path_2913" data-name="Path 2913" d="M510.214,312.541h-8.639l-.381-3.915-.008-.078,2.446-.167,6.363-.435.111,2.343.086,1.8Z" transform="translate(-498.457 -239.232)" fill="#fcc64d"/>
      <path id="Path_2914" data-name="Path 2914" d="M507.745,142.18l3.629,21.292-2.962,20.952-.462,3.261-.815,5.758-.251,1.771.008.192.062,1.436H496.7l-.378-3.914-.032-.351-.772-8.018-.014-.135-1.639-17,3.212-12.289.238-.9v0l1.4-21.041-1.083-9.562-.011-.089.062.04c.057.035.113.07.167.108a21.351,21.351,0,0,1,9.9,18.5Z" transform="translate(-493.861 -123.533)" fill="#fcc64d"/>
    </g>
    <path id="Path_2915" data-name="Path 2915" d="M343.222,145.509l-3.945-4.08s-8.445,3.807-8.866,5.919-15.332,33.135-15.332,33.135l-6.487-17.326-8.444,5.638s6.775,26.9,13.112,28.162,27.574-31.838,27.574-31.838Z" transform="translate(-20842.469 -23264.729)" fill="#fcc64d"/>
    <circle id="Ellipse_185" data-name="Ellipse 185" cx="13.126" cy="13.126" r="13.126" transform="translate(-20414.371 -23155.143)" fill="#fee1c9"/>
    <path id="Path_2916" data-name="Path 2916" d="M659.9,60.9s-1.361-3.749-2.132-5.694a9.246,9.246,0,0,1-.268-4.47s-10.3-2.273-14.328-.02-4.3-9.078-.211-12.161c0,0,1.1,1.9.67,2.452l-.425.548s3.1-6.549,8.326-6.877c0,0,2.478,1.978,1.544,2.63s6.887-3.69,8.247.059c0,0,4.987.888,4.015,2.592l.082,1.176s4.52-.469,4.2,2.733a3.854,3.854,0,0,0-2.493.346c-.972.649,2.313,3.728,2.313,3.728s1.975,12.829-4.874,16.523c0,0,1.111-5.838-1.5-4.884A19.535,19.535,0,0,0,659.9,60.9Z" transform="translate(-21055.701 -23197.76)" fill="#04044b"/>
    <path id="Path_2917" data-name="Path 2917" d="M290.919,302.222H7.281c-4.015,0-7.281-3.538-7.281-7.886s3.266-7.886,7.281-7.886H290.919c4.015,0,7.281,3.538,7.281,7.886S294.934,302.222,290.919,302.222Z" transform="translate(-20638.635 -23355.719)" fill="#f5f7fa"/>
    <path id="Path_2918" data-name="Path 2918" d="M411.914,213.407l-.6,27.872a4.961,4.961,0,0,1-4.96,4.855H355.084a4.962,4.962,0,0,1-4.954-4.691l-1.524-27.872a4.961,4.961,0,0,1,4.954-5.232h53.393A4.962,4.962,0,0,1,411.914,213.407Z" transform="translate(-20872.869 -23306.709)" fill="#04044b"/>
    <path id="Path_2919" data-name="Path 2919" d="M710.914,213.407l-.6,27.872a4.961,4.961,0,0,1-4.96,4.855H654.084a4.962,4.962,0,0,1-4.954-4.691l-1.524-27.872a4.961,4.961,0,0,1,4.954-5.232h53.393A4.962,4.962,0,0,1,710.914,213.407Z" transform="translate(-21060.457 -23306.709)" fill="#04044b"/>
    <circle id="Ellipse_186" data-name="Ellipse 186" cx="12.267" cy="12.267" r="12.267" transform="translate(-20555.998 -23163.525)" fill="#fee1c9"/>
    <path id="Path_2920" data-name="Path 2920" d="M220.023,148.914l1.35,14.578,9.179,36.985-7.93,2.779-13.4-40.3-1.85-16.2Z" transform="translate(-20784.266 -23268.072)" fill="#fee1c9"/>
    <path id="Path_2921" data-name="Path 2921" d="M124.914,213.407l-.6,27.872a4.961,4.961,0,0,1-4.96,4.855H68.084a4.961,4.961,0,0,1-4.954-4.691l-1.524-27.872a4.961,4.961,0,0,1,4.954-5.232h53.393A4.961,4.961,0,0,1,124.914,213.407Z" transform="translate(-20692.809 -23306.709)" fill="#04044b"/>
    <ellipse id="Ellipse_187" data-name="Ellipse 187" cx="9.688" cy="4.285" rx="9.688" ry="4.285" transform="translate(-20561.941 -23068.963)" fill="#fee1c9"/>
    <path id="Path_2922" data-name="Path 2922" d="M190.242,108.109l5.534-29.5s15.388-2.16,15.928,2.97-.386,30.2-.386,30.2l-21.076-3.671Z" transform="translate(-20773.518 -23225.041)" fill="#dde7fe"/>
    <path id="Path_2923" data-name="Path 2923" d="M231.247,28.594s7.588-2.708,10.789-4.165,9.56,8.707,9.7,3.339-2.056-7.619-2.056-7.619S249.134,8.406,237.3,9.874c0,0,2.6-5.875-5.94-6.784s-21.831,19.719-20.641,22.8,2.617,5.631-.76,8.927-9.7,21.9-4.889,26.9S210.2,68.9,206.9,72.015s-11.087,9.885-2.663,11.061-.771.3,5.509-5.226,15.444-5.3,12.022-14.161S224.3,42.126,223.552,40.2s1.667-14.161,1.667-14.161,5.61-.824,6.029,2.556Z" transform="translate(-20779.928 -23177.92)" fill="#04044b"/>
    <g id="Group_894" data-name="Group 894" transform="translate(-20500.512 -23176)">
      <circle id="Ellipse_188" data-name="Ellipse 188" cx="13.354" cy="13.354" r="13.354" transform="translate(1.114 14.778)" fill="#fee1c9"/>
      <path id="Path_2924" data-name="Path 2924" d="M427.9,10.179c-.387.226-.9-.116-1.028-.546a2.238,2.238,0,0,1,.164-1.31l.721-2.134a10.958,10.958,0,0,1,2.16-4.232C431.584.218,434.238-.224,436.628.1a9.863,9.863,0,0,1,7.523,4.821c1.427,2.748.819,6.582-1.759,8.3,3.675,4.212,4.956,8.906,4.753,14.491s-6.289,10.727-10.259,14.661c-.887-.537-1.692-3.056-1.2-3.971s-.211-1.975.393-2.817,1.109.5.5-.339c-.385-.529,1.118-1.745.546-2.062-2.769-1.531-3.69-4.982-5.429-7.625a12.991,12.991,0,0,0-9.487-5.705,8.971,8.971,0,0,0-6.019,1.375,5.641,5.641,0,0,0-2.428,5.451,4.841,4.841,0,0,1,1.007-7.577,7.908,7.908,0,0,1,1.679-7.454c1.789-1.973,9.047-1.637,11.659-1.117l-.2-.347Z" transform="translate(-412.364 0)" fill="#04044b"/>
      <path id="Path_2925" data-name="Path 2925" d="M455.14,53.475c3.46.373,5.958,3.37,8.067,6.138,1.216,1.6,2.489,3.357,2.459,5.362-.031,2.028-1.386,3.767-2.034,5.688a8.572,8.572,0,0,0,2.494,9.029,4.98,4.98,0,0,1-5.613-3.893c-.5-2.909,1.7-5.716,1.443-8.656-.23-2.59-2.271-4.583-4.006-6.52s-3.365-4.506-2.567-6.981Z" transform="translate(-439.201 -33.549)" fill="#04044b"/>
    </g>
  </g>
</svg>
