<svg xmlns="http://www.w3.org/2000/svg" width="259.709" height="120.925" viewBox="0 0 259.709 120.925">
  <g id="Group_908" data-name="Group 908" transform="translate(20540 19194.709)">
    <path id="Path_2965" data-name="Path 2965" d="M826.272,536.283H791.833a55.961,55.961,0,0,1,.05-8.281,59.22,59.22,0,0,1,24.608-43.055c-1.785,6.36-.868,12.682.992,19.03-.26.087-.521.161-.756.26a15.406,15.406,0,0,0-5.1,3.124c-.409.384-.843.942-.632,1.475.186.446.744.595,1.227.694,1.165.223,2.331.446,3.484.657.93.186,1.859.359,2.789.546.434.074.868.161,1.3.248.062.149.1.285.161.421,2.182,6.013,4.562,12.075,5.678,18.236a42.558,42.558,0,0,1,.57,4.674C826.247,534.969,826.272,535.626,826.272,536.283Z" transform="translate(-21140.471 -19643.08)" fill="#f2f2f2"/>
    <path id="Path_2967" data-name="Path 2967" d="M314.741,570.239c-5.851,3.558-9.571,9.062-12.608,15.224a15.57,15.57,0,0,0-7.079,3.719c-.422.384-.855.942-.632,1.475.186.446.744.6,1.227.694,1.153.223,2.331.447,3.484.657-.112.26-.223.533-.335.794H260.12a54.681,54.681,0,0,1,5.814-6.645c.459-.459.93-.893,1.413-1.339a57.849,57.849,0,0,1,16.736-10.562A58.876,58.876,0,0,1,314.741,570.239Z" transform="translate(-20785.979 -19699.598)" fill="#f2f2f2"/>
    <path id="Path_2972" data-name="Path 2972" d="M368.86,602.275a8.9,8.9,0,0,0,.643,3.325,8.511,8.511,0,0,0,.583,1.186,9.03,9.03,0,0,0,1.006,1.393,8.915,8.915,0,0,0,6.7,3.035h130.36a8.935,8.935,0,0,0,0-17.87H377.795A8.943,8.943,0,0,0,368.86,602.275Z" transform="translate(-20858.494 -19715.363)" fill="#e6e6e6"/>
    <path id="Path_2973" data-name="Path 2973" d="M159.92,635.474a92.619,92.619,0,0,0,8.464,9.644H411.165a92.612,92.612,0,0,0,8.464-9.644Z" transform="translate(-20699.92 -19743.461)" fill="#383838"/>
    <path id="Path_2974" data-name="Path 2974" d="M556.61,536.356v34.166h23.936V536.356a1.149,1.149,0,0,0-.81-1.1,1.058,1.058,0,0,0-.343-.053H557.766A1.154,1.154,0,0,0,556.61,536.356Zm9.341,11.74a2.555,2.555,0,1,1,5.11,0v3.964a2.555,2.555,0,1,1-5.11,0Z" transform="translate(-20983.695 -19676.598)" fill="#04044b"/>
    <path id="Path_2975" data-name="Path 2975" d="M556.39,637.944v3.295a.648.648,0,0,0,.643.646h22.8a.646.646,0,0,0,.643-.646v-3.295Z" transform="translate(-20983.549 -19745.109)" fill="#3f3d56"/>
    <path id="Path_2976" data-name="Path 2976" d="M443.58,378.149v62.383a3,3,0,0,0,3,3h92.445a3,3,0,0,0,3-3V378.149a3,3,0,0,0-3-2.995H446.578A3,3,0,0,0,443.58,378.149Z" transform="translate(-20908.32 -19569.863)" fill="#04044b"/>
    <path id="Path_2977" data-name="Path 2977" d="M450.09,383.26V444.1a1.605,1.605,0,0,0,1.6,1.6h90.9a1.605,1.605,0,0,0,1.6-1.6V383.26a1.606,1.606,0,0,0-1.6-1.606h-90.9A1.606,1.606,0,0,0,450.09,383.26Z" transform="translate(-20912.662 -19574.197)" fill="#005bac"/>
    <path id="Path_2978" data-name="Path 2978" d="M505.282,640.88a.983.983,0,0,0,.773.37h54.081a1,1,0,0,0,.973-1.2l-.84-3.988a1,1,0,0,0-.62-.723.964.964,0,0,0-.353-.067H506.891a.963.963,0,0,0-.353.067,1,1,0,0,0-.62.723l-.84,3.988A1,1,0,0,0,505.282,640.88Z" transform="translate(-20949.318 -19743.324)" fill="#04044b"/>
    <rect id="Rectangle_1250" data-name="Rectangle 1250" width="1.666" height="0.999" rx="0.488" transform="translate(-20390.406 -19106.334) rotate(180)" fill="#383838"/>
    <rect id="Rectangle_1251" data-name="Rectangle 1251" width="1.666" height="0.999" rx="0.488" transform="translate(-20393.738 -19106.334) rotate(180)" fill="#383838"/>
    <rect id="Rectangle_1252" data-name="Rectangle 1252" width="1.666" height="0.999" rx="0.488" transform="translate(-20397.066 -19106.334) rotate(180)" fill="#383838"/>
    <rect id="Rectangle_1253" data-name="Rectangle 1253" width="1.666" height="0.999" rx="0.488" transform="translate(-20400.4 -19106.334) rotate(180)" fill="#383838"/>
    <rect id="Rectangle_1254" data-name="Rectangle 1254" width="1.666" height="0.999" rx="0.488" transform="translate(-20403.73 -19106.334) rotate(180)" fill="#383838"/>
    <rect id="Rectangle_1255" data-name="Rectangle 1255" width="1.666" height="0.999" rx="0.488" transform="translate(-20407.063 -19106.334) rotate(180)" fill="#383838"/>
    <rect id="Rectangle_1256" data-name="Rectangle 1256" width="1.666" height="0.999" rx="0.488" transform="translate(-20410.391 -19106.334) rotate(180)" fill="#383838"/>
    <rect id="Rectangle_1257" data-name="Rectangle 1257" width="1.666" height="0.999" rx="0.488" transform="translate(-20413.727 -19106.334) rotate(180)" fill="#3f3d56"/>
    <rect id="Rectangle_1258" data-name="Rectangle 1258" width="1.666" height="0.999" rx="0.488" transform="translate(-20417.057 -19106.334) rotate(180)" fill="#3f3d56"/>
    <rect id="Rectangle_1259" data-name="Rectangle 1259" width="1.666" height="0.999" rx="0.488" transform="translate(-20420.387 -19106.334) rotate(180)" fill="#3f3d56"/>
    <rect id="Rectangle_1260" data-name="Rectangle 1260" width="1.666" height="0.999" rx="0.488" transform="translate(-20423.717 -19106.334) rotate(180)" fill="#3f3d56"/>
    <rect id="Rectangle_1261" data-name="Rectangle 1261" width="1.666" height="0.999" rx="0.488" transform="translate(-20427.053 -19106.334) rotate(180)" fill="#3f3d56"/>
    <rect id="Rectangle_1262" data-name="Rectangle 1262" width="1.666" height="0.999" rx="0.488" transform="translate(-20430.381 -19106.334) rotate(180)" fill="#383838"/>
    <rect id="Rectangle_1263" data-name="Rectangle 1263" width="1.666" height="0.999" rx="0.488" transform="translate(-20433.711 -19106.334) rotate(180)" fill="#383838"/>
    <rect id="Rectangle_1264" data-name="Rectangle 1264" width="1.666" height="0.999" rx="0.488" transform="translate(-20437.045 -19106.334) rotate(180)" fill="#383838"/>
    <rect id="Rectangle_1265" data-name="Rectangle 1265" width="1.666" height="0.999" rx="0.488" transform="translate(-20440.377 -19106.334) rotate(180)" fill="#383838"/>
    <rect id="Rectangle_1266" data-name="Rectangle 1266" width="1.666" height="0.999" rx="0.488" transform="translate(-20390.367 -19104.67) rotate(180)" fill="#383838"/>
    <rect id="Rectangle_1267" data-name="Rectangle 1267" width="1.666" height="0.999" rx="0.488" transform="translate(-20393.695 -19104.67) rotate(180)" fill="#383838"/>
    <rect id="Rectangle_1268" data-name="Rectangle 1268" width="1.666" height="0.999" rx="0.488" transform="translate(-20397.031 -19104.67) rotate(180)" fill="#383838"/>
    <rect id="Rectangle_1269" data-name="Rectangle 1269" width="1.666" height="0.999" rx="0.488" transform="translate(-20400.357 -19104.67) rotate(180)" fill="#383838"/>
    <rect id="Rectangle_1270" data-name="Rectangle 1270" width="1.666" height="0.999" rx="0.488" transform="translate(-20403.691 -19104.67) rotate(180)" fill="#383838"/>
    <rect id="Rectangle_1271" data-name="Rectangle 1271" width="1.666" height="0.999" rx="0.488" transform="translate(-20407.023 -19104.67) rotate(180)" fill="#383838"/>
    <rect id="Rectangle_1272" data-name="Rectangle 1272" width="1.666" height="0.999" rx="0.488" transform="translate(-20410.357 -19104.67) rotate(180)" fill="#383838"/>
    <rect id="Rectangle_1273" data-name="Rectangle 1273" width="1.666" height="0.999" rx="0.488" transform="translate(-20413.684 -19104.67) rotate(180)" fill="#383838"/>
    <rect id="Rectangle_1274" data-name="Rectangle 1274" width="1.666" height="0.999" rx="0.488" transform="translate(-20417.018 -19104.67) rotate(180)" fill="#3f3d56"/>
    <rect id="Rectangle_1275" data-name="Rectangle 1275" width="1.666" height="0.999" rx="0.488" transform="translate(-20420.35 -19104.67) rotate(180)" fill="#3f3d56"/>
    <rect id="Rectangle_1276" data-name="Rectangle 1276" width="1.666" height="0.999" rx="0.488" transform="translate(-20423.682 -19104.67) rotate(180)" fill="#3f3d56"/>
    <rect id="Rectangle_1277" data-name="Rectangle 1277" width="1.666" height="0.999" rx="0.488" transform="translate(-20427.01 -19104.67) rotate(180)" fill="#3f3d56"/>
    <rect id="Rectangle_1278" data-name="Rectangle 1278" width="1.666" height="0.999" rx="0.488" transform="translate(-20430.342 -19104.67) rotate(180)" fill="#383838"/>
    <rect id="Rectangle_1279" data-name="Rectangle 1279" width="1.666" height="0.999" rx="0.488" transform="translate(-20433.674 -19104.67) rotate(180)" fill="#383838"/>
    <rect id="Rectangle_1280" data-name="Rectangle 1280" width="1.666" height="0.999" rx="0.488" transform="translate(-20437.006 -19104.67) rotate(180)" fill="#383838"/>
    <rect id="Rectangle_1281" data-name="Rectangle 1281" width="1.666" height="0.999" rx="0.488" transform="translate(-20440.334 -19104.67) rotate(180)" fill="#383838"/>
    <rect id="Rectangle_1282" data-name="Rectangle 1282" width="13.325" height="0.999" rx="0.488" transform="translate(-20406.355 -19102.67) rotate(180)" fill="#383838"/>
    <path id="Path_2979" data-name="Path 2979" d="M467.935,405.456h85.058a.338.338,0,1,0,0-.677H467.935a.338.338,0,1,0,0,.676Z" transform="translate(-20924.338 -19589.621)" fill="#f5f7fa"/>
    <ellipse id="Ellipse_214" data-name="Ellipse 214" cx="1.982" cy="2.026" rx="1.982" ry="2.026" transform="translate(-20379.113 -19190.619)" fill="#f5f7fa"/>
    <ellipse id="Ellipse_215" data-name="Ellipse 215" cx="1.982" cy="2.026" rx="1.982" ry="2.026" transform="translate(-20385.965 -19190.619)" fill="#f5f7fa"/>
    <ellipse id="Ellipse_216" data-name="Ellipse 216" cx="1.982" cy="2.026" rx="1.982" ry="2.026" transform="translate(-20392.809 -19190.619)" fill="#f5f7fa"/>
    <path id="Path_2980" data-name="Path 2980" d="M479.9,389.3a.365.365,0,0,0,.363.366h4.864a.368.368,0,0,0,0-.736h-4.864A.368.368,0,0,0,479.9,389.3Z" transform="translate(-20932.539 -19579.053)" fill="#f5f7fa"/>
    <path id="Path_2981" data-name="Path 2981" d="M479.9,393.454a.365.365,0,0,0,.363.366h4.864a.368.368,0,0,0,0-.736h-4.864A.367.367,0,0,0,479.9,393.454Z" transform="translate(-20932.539 -19581.82)" fill="#f5f7fa"/>
    <path id="Path_2982" data-name="Path 2982" d="M479.9,397.6a.368.368,0,0,0,.363.37h4.864a.368.368,0,0,0,0-.736h-4.864A.365.365,0,0,0,479.9,397.6Z" transform="translate(-20932.541 -19584.59)" fill="#f5f7fa"/>
    <rect id="Rectangle_1283" data-name="Rectangle 1283" width="3.667" height="1.919" rx="0.959" transform="translate(-20453.842 -19176.305)" fill="#f5f7fa"/>
    <rect id="Rectangle_1284" data-name="Rectangle 1284" width="3.667" height="1.919" rx="0.959" transform="translate(-20433.855 -19176.305)" fill="#f5f7fa"/>
    <rect id="Rectangle_1285" data-name="Rectangle 1285" width="3.667" height="1.919" rx="0.959" transform="translate(-20428.191 -19176.305)" fill="#f5f7fa"/>
    <rect id="Rectangle_1286" data-name="Rectangle 1286" width="12.781" height="1.919" rx="0.959" transform="translate(-20448.406 -19176.459)" fill="#f5f7fa"/>
    <rect id="Rectangle_1287" data-name="Rectangle 1287" width="12.781" height="1.919" rx="0.959" transform="translate(-20421.758 -19176.459)" fill="#f5f7fa"/>
    <rect id="Rectangle_1288" data-name="Rectangle 1288" width="3.667" height="1.919" rx="0.959" transform="translate(-20448.514 -19171.973)" fill="#f5f7fa"/>
    <rect id="Rectangle_1289" data-name="Rectangle 1289" width="3.667" height="1.919" rx="0.959" transform="translate(-20428.527 -19171.973)" fill="#f5f7fa"/>
    <rect id="Rectangle_1290" data-name="Rectangle 1290" width="3.667" height="1.919" rx="0.959" transform="translate(-20422.861 -19171.973)" fill="#f5f7fa"/>
    <rect id="Rectangle_1291" data-name="Rectangle 1291" width="12.781" height="1.919" rx="0.959" transform="translate(-20443.076 -19172.133)" fill="#f5f7fa"/>
    <rect id="Rectangle_1292" data-name="Rectangle 1292" width="12.781" height="1.919" rx="0.959" transform="translate(-20416.428 -19172.133)" fill="#f5f7fa"/>
    <rect id="Rectangle_1293" data-name="Rectangle 1293" width="3.667" height="1.919" rx="0.959" transform="translate(-20443.184 -19167.641)" fill="#f5f7fa"/>
    <rect id="Rectangle_1294" data-name="Rectangle 1294" width="3.667" height="1.919" rx="0.959" transform="translate(-20423.197 -19167.641)" fill="#f5f7fa"/>
    <rect id="Rectangle_1295" data-name="Rectangle 1295" width="3.667" height="1.919" rx="0.959" transform="translate(-20417.531 -19167.641)" fill="#f5f7fa"/>
    <rect id="Rectangle_1296" data-name="Rectangle 1296" width="12.781" height="1.919" rx="0.959" transform="translate(-20437.748 -19167.801)" fill="#f5f7fa"/>
    <rect id="Rectangle_1297" data-name="Rectangle 1297" width="12.781" height="1.919" rx="0.959" transform="translate(-20411.094 -19167.801)" fill="#f5f7fa"/>
    <rect id="Rectangle_1298" data-name="Rectangle 1298" width="3.667" height="1.919" rx="0.959" transform="translate(-20437.852 -19163.311)" fill="#f5f7fa"/>
    <rect id="Rectangle_1299" data-name="Rectangle 1299" width="3.667" height="1.919" rx="0.959" transform="translate(-20417.863 -19163.311)" fill="#f5f7fa"/>
    <rect id="Rectangle_1300" data-name="Rectangle 1300" width="3.667" height="1.919" rx="0.959" transform="translate(-20412.201 -19163.311)" fill="#f5f7fa"/>
    <rect id="Rectangle_1301" data-name="Rectangle 1301" width="12.781" height="1.919" rx="0.959" transform="translate(-20432.418 -19163.471)" fill="#f5f7fa"/>
    <rect id="Rectangle_1302" data-name="Rectangle 1302" width="3.667" height="1.919" rx="0.959" transform="translate(-20433.855 -19146.086)" fill="#f5f7fa"/>
    <rect id="Rectangle_1303" data-name="Rectangle 1303" width="3.667" height="1.919" rx="0.959" transform="translate(-20428.191 -19146.086)" fill="#f5f7fa"/>
    <rect id="Rectangle_1304" data-name="Rectangle 1304" width="12.781" height="1.919" rx="0.959" transform="translate(-20421.758 -19145.932)" fill="#f5f7fa"/>
    <rect id="Rectangle_1305" data-name="Rectangle 1305" width="3.667" height="1.919" rx="0.959" transform="translate(-20453.842 -19146.086)" fill="#f5f7fa"/>
    <rect id="Rectangle_1306" data-name="Rectangle 1306" width="12.781" height="1.919" rx="0.959" transform="translate(-20448.406 -19145.932)" fill="#f5f7fa"/>
    <rect id="Rectangle_1307" data-name="Rectangle 1307" width="3.667" height="1.919" rx="0.959" transform="translate(-20448.514 -19150.42)" fill="#f5f7fa"/>
    <rect id="Rectangle_1308" data-name="Rectangle 1308" width="3.667" height="1.919" rx="0.959" transform="translate(-20428.527 -19150.42)" fill="#f5f7fa"/>
    <rect id="Rectangle_1309" data-name="Rectangle 1309" width="3.667" height="1.919" rx="0.959" transform="translate(-20422.861 -19150.42)" fill="#f5f7fa"/>
    <rect id="Rectangle_1310" data-name="Rectangle 1310" width="12.781" height="1.919" rx="0.959" transform="translate(-20443.076 -19150.258)" fill="#f5f7fa"/>
    <rect id="Rectangle_1311" data-name="Rectangle 1311" width="3.667" height="1.919" rx="0.959" transform="translate(-20443.184 -19154.754)" fill="#f5f7fa"/>
    <rect id="Rectangle_1312" data-name="Rectangle 1312" width="3.667" height="1.919" rx="0.959" transform="translate(-20423.197 -19154.754)" fill="#f5f7fa"/>
    <rect id="Rectangle_1313" data-name="Rectangle 1313" width="3.667" height="1.919" rx="0.959" transform="translate(-20417.531 -19154.754)" fill="#f5f7fa"/>
    <rect id="Rectangle_1314" data-name="Rectangle 1314" width="12.781" height="1.919" rx="0.959" transform="translate(-20437.748 -19154.59)" fill="#f5f7fa"/>
    <rect id="Rectangle_1315" data-name="Rectangle 1315" width="3.667" height="1.919" rx="0.959" transform="translate(-20437.852 -19159.082)" fill="#f5f7fa"/>
    <rect id="Rectangle_1316" data-name="Rectangle 1316" width="3.667" height="1.919" rx="0.959" transform="translate(-20417.863 -19159.082)" fill="#f5f7fa"/>
    <rect id="Rectangle_1317" data-name="Rectangle 1317" width="3.667" height="1.919" rx="0.959" transform="translate(-20412.201 -19159.082)" fill="#f5f7fa"/>
    <rect id="Rectangle_1318" data-name="Rectangle 1318" width="12.781" height="1.919" rx="0.959" transform="translate(-20432.418 -19158.92)" fill="#f5f7fa"/>
    <path id="Path_2983" data-name="Path 2983" d="M339.242,580.045c-.073.037-.147.073-.22.107q-.695.345-1.4.68-2.109,1-4.271,1.909a95.126,95.126,0,0,1-11.65,4.008c-.666-4.154-1.313-13.952-1.932-21.158-.117-1.356-.233-2.619-.35-3.734a32.356,32.356,0,0,0-.63-4.358,1.457,1.457,0,0,0-.13-.323c.063.576.13,2.3.193,4.681.033,1.116.063,2.379.1,3.734.157,6.936.32,16.374.483,21.747-.463.113-.929.227-1.4.333-.293.07-.59.136-.886.2-.36.08-.72.16-1.079.233q-.565.12-1.129.23a96.638,96.638,0,0,1-18.676,1.812c-.416,0-.829,0-1.246-.007-.127,0-.253,0-.383-.006-.366-.007-.746-.013-1.133-.023a96.148,96.148,0,0,1-21.934-3.162l.29-21.357.05-3.734.02-1.416a5.059,5.059,0,0,0-.293,1.416c-.117.909-.236,2.2-.356,3.734-.456,5.917-.926,15.461-1.413,20.891a80.3,80.3,0,0,1-15.234-5.767c-.2-.1-.41-.2-.613-.307.037-.256.077-.513.113-.776.6-4.144-.107-9.538.553-14.042.5-3.475,1.023-6.813,1.546-9.644a35.224,35.224,0,0,1,1.912-7.389c.733-1.5,1.466-2.982,2.175-4.4l.9-1.8c.16-.317.32-.63.476-.936.713-1.4,1.386-2.685,2-3.828.433-.8.833-1.529,1.2-2.165.43-.75.81-1.369,1.123-1.839a18.425,18.425,0,0,1,9.754-7.4l.1-.027.1.04.11.05,6.35-2.322,2.835-6.826,14.561-.9L302.183,518l1.2.916,1.283.976,2.359,1.8.67.207,1,.306,6.813,2.092.07-.03.1.027a18.38,18.38,0,0,1,9.115,6.5c.227.293.436.6.64.9.553.82,1.3,2.115,2.179,3.741.363.669.746,1.4,1.149,2.165.243.463,2.342,7.012,4.384,13.7,1.909,6.263,3.768,12.649,4.011,14.288.043.3.09.609.133.913.276,1.9.55,3.8.813,5.667.39,2.762.77,5.427,1.133,7.809C339.235,580,339.238,580.022,339.242,580.045Z" transform="translate(-20781.914 -19663.932)" fill="#dde7fe"/>
    <path id="Path_2984" data-name="Path 2984" d="M292.92,451.7l-2.831-10.924-2.5,9.427Z" transform="translate(-20751.02 -19559.699)" opacity="0.2"/>
    <path id="Path_2990" data-name="Path 2990" d="M774.479,580.406c-.2.1-.41.207-.613.306a80.294,80.294,0,0,1-15.234,5.767c-.486-5.43-.956-14.975-1.413-20.891-.12-1.536-.24-2.825-.356-3.734a5.052,5.052,0,0,0-.293-1.416l.02,1.416.05,3.734.29,21.357A96.139,96.139,0,0,1,735,590.107c-.386.01-.766.017-1.133.023-.13,0-.257.007-.383.007-.417,0-.83.007-1.246.007a96.362,96.362,0,0,1-23.166-2.808c.163-5.373.326-14.811.483-21.747.033-1.356.063-2.618.1-3.734.063-2.385.13-4.1.193-4.681a1.457,1.457,0,0,0-.13.323,32.39,32.39,0,0,0-.63,4.357c-.117,1.116-.233,2.379-.35,3.734-.62,7.206-1.266,17-1.932,21.158a95.106,95.106,0,0,1-11.65-4.008q-3-1.249-5.89-2.7c.366-2.4.75-5.087,1.143-7.875.307-2.162.623-4.384.946-6.58.5-3.391,17.476-40.013,21.477-41.3l.1-.027.07.03,6.813-2.092,1-.307.67-.206,2.359-1.8,1.283-.976,1.2-.916,2.352-1.789,14.561.9,2.835,6.826,6.35,2.322.11-.05.1-.04.1.027a18.425,18.425,0,0,1,9.754,7.4c.313.47.693,1.089,1.122,1.839.367.636.766,1.362,1.2,2.165.616,1.143,1.289,2.432,2,3.828.157.307.316.62.476.936q.444.879.9,1.8c.709,1.416,1.443,2.895,2.175,4.4a35.23,35.23,0,0,1,1.912,7.389c.523,2.832,1.043,6.169,1.546,9.644.66,4.5-.043,9.9.553,14.042C774.4,579.893,774.442,580.149,774.479,580.406Z" transform="translate(-21072.156 -19663.93)" fill="#fcc64d"/>
    <circle id="Ellipse_217" data-name="Ellipse 217" cx="16.935" cy="16.935" r="16.935" transform="translate(-20357.318 -19184.037)" fill="#fee1c9"/>
    <path id="Path_2991" data-name="Path 2991" d="M575.659,451.7l2.831-10.924,2.5,9.427Z" transform="translate(-20943.125 -19559.699)" opacity="0.2"/>
    <path id="Path_2992" data-name="Path 2992" d="M770.419,609.085c-1.013,13.952.037,20.095-5.553,31.6a95.354,95.354,0,0,1-15.831,6.07q-.85.24-1.7.466a96.138,96.138,0,0,1-21.934,3.161c-.386.01-.766.017-1.133.023-.13,0-.256.006-.383.006-.416,0-.83.007-1.246.007a96.364,96.364,0,0,1-23.167-2.808q-1.139-.28-2.268-.59a95.064,95.064,0,0,1-11.65-4.008q-3-1.249-5.89-2.7c-.436-.22-.873-.44-1.3-.666a28.69,28.69,0,0,1-3.491-14.285C676.4,615.585,767.041,600.65,770.419,609.085Z" transform="translate(-21062.561 -19724.207)" fill="#04044b"/>
    <path id="Path_2993" data-name="Path 2993" d="M770.766,610.883c.052-.864.109-1.756.177-2.685-3.378-8.435-94.021,6.5-95.55,16.28,0,.9.042,1.767.107,2.617C679.2,617.441,765.315,603.247,770.766,610.883Z" transform="translate(-21062.908 -19723.615)" fill="#383838" opacity="0.2"/>
    <path id="Path_2994" data-name="Path 2994" d="M641.99,547.832l7.44-3.72-6.2-16.74L641.6,518.93a6.383,6.383,0,0,0-10.421-3.634h0a6.383,6.383,0,0,0-.83,8.834l6.065,7.582Z" transform="translate(-21031.934 -19662.295)" fill="#fee1c9"/>
    <path id="Path_2995" data-name="Path 2995" d="M670.578,556.631l-9.92,4.96,7.528,23.589a10.319,10.319,0,0,0,7.441,6.9h0a10.32,10.32,0,0,0,11.239-4.73l19.963-34.218a10.534,10.534,0,0,0-3.4-14.319h0a10.534,10.534,0,0,0-15.09,4.253l-12.185,25.964Z" transform="translate(-21053.082 -19677.912)" fill="#fcc64d"/>
    <circle id="Ellipse_218" data-name="Ellipse 218" cx="18.634" cy="18.634" r="18.634" transform="translate(-20508.078 -19188.602)" fill="#fee1c9"/>
    <path id="Path_2996" data-name="Path 2996" d="M309.108,388.5c1.515-2.042,3.693-3.494,5.358-5.415a36.924,36.924,0,0,1,2.7-3.192,11.091,11.091,0,0,1,7.169-2.561,18.091,18.091,0,0,1,14.768,7.009l4.062-2.382,1.6,4.224a2.462,2.462,0,0,1,3.752,3.081,1.7,1.7,0,0,1,2.613-.549,3.147,3.147,0,0,1,.9,2.866,5.77,5.77,0,0,1-4.352,4.772c-1.767.394-3.824-.02-5.238,1.11-1.134.906-1.476,2.556-2.633,3.432-1.426,1.079-3.441.58-5.213.819a6.264,6.264,0,0,0-5.184,6.7,7.763,7.763,0,0,0-1.212-2.785,2.644,2.644,0,0,0-2.686-1.042c-1.614.484-1.878,2.684-1.487,4.324,1.038,4.347,4.97,11.375,4.97,11.375-5.106,2.014-11.19.11-15.129-3.713s-5.992-9.234-6.885-14.65C306.227,397.326,306.334,392.24,309.108,388.5Z" transform="translate(-20816.957 -19571.313)" fill="#04044b"/>
    <path id="Path_2997" data-name="Path 2997" d="M798.478,422.474c3.545-8.128,1.537-15.607-2.785-19.575v0c-1.7-3.808-3.958-6.746-6.543-7.436a19.844,19.844,0,0,0-3.808-2.225,4.96,4.96,0,0,0-3.891.177l-.686-.183c-.583-1.489-1.266-1.519-2.026-.54a18.823,18.823,0,0,0-7.905-1.972c-7.649,0-12.173,6.476-13.372,14.3l6.393,1.7,2.222-3.541-1.026,3.861,3.528.936c5.37,6.993-1.056,23.123-9.2,32.1q2.908-.8,5.793-1.359l6.989-10.247-4.331,9.328a25.435,25.435,0,0,1,8.252.623,5.389,5.389,0,0,0,1.066-4.857,18.578,18.578,0,0,1,1.826,5.507c6.616,1.616,15.641,2.445,20.5,3.058C803.407,440.846,803.417,426.358,798.478,422.474Z" transform="translate(-21117.635 -19580.24)" fill="#04044b"/>
    <path id="Path_2998" data-name="Path 2998" d="M856.082,388.137c2.6,5.814-2.643,8.315-7.443,8.245-4.337-.064-8.023-3.111-8.244-7.443a7.854,7.854,0,0,1,7.443-8.245C852.169,380.473,854.313,384.176,856.082,388.137Z" transform="translate(-21172.936 -19573.549)" fill="#04044b"/>
    <path id="Path_2999" data-name="Path 2999" d="M517.34,634.8l-4.277-7.134,14.222-10.79,5.913-6.243a6.383,6.383,0,0,1,10.742,2.533h0a6.383,6.383,0,0,1-4.045,7.9l-9.189,3.137Z" transform="translate(-20954.652 -19725.566)" fill="#fee1c9"/>
    <path id="Path_3000" data-name="Path 3000" d="M463.221,602.014l-6.659,5.55-1.8,1.5-.21.173q-.695.345-1.4.68-2.109,1-4.271,1.909a95.129,95.129,0,0,1-11.65,4.008q-1.129.31-2.269.59c-.463.113-.93.226-1.4.333-.293.07-.59.136-.886.2-.36.08-.72.16-1.079.233q-.565.12-1.129.23a10.315,10.315,0,0,1-3.2-7.476c0-.09,0-.183,0-.276l1.069-27.427.473-12.156a10.533,10.533,0,0,1,10.557-10.254c.32,0,.636.017.949.047.226.293.436.6.64.9.553.82,1.3,2.116,2.179,3.741.363.67.746,1.4,1.149,2.165.243.463,2.342,7.013,4.384,13.7l-.9,6.986-1.626,12.592,6.669-4.377,4.7-3.085.556.929,1.449,2.418,2.8,4.664Z" transform="translate(-20897.447 -19693.014)" fill="#dde7fe"/>
    <path id="Path_3001" data-name="Path 3001" d="M332.952,625.369c0,.566-.017,1.123-.047,1.672a32.374,32.374,0,0,1-.526,4.517,26.366,26.366,0,0,1-2.435,7.2c-.153.3-.317.6-.483.9-.43.227-.866.446-1.3.666-.073.037-.147.073-.22.107q-2.783,1.384-5.67,2.588a95.1,95.1,0,0,1-11.65,4.008q-1.129.31-2.269.59-2.224.55-4.491,1a96.643,96.643,0,0,1-18.676,1.812c-.416,0-.83,0-1.246-.007-.127,0-.253,0-.383-.007-.366-.007-.746-.013-1.133-.023a96.132,96.132,0,0,1-21.934-3.161q-.854-.225-1.7-.466a95.33,95.33,0,0,1-15.831-6.07c-5.59-11.5-4.541-17.646-5.553-31.6,2.079-5.193,37.248-1.526,64.325,4.341a191.085,191.085,0,0,1,19.432,5.134c5.51,1.842,9.5,3.714,11.07,5.473A2.645,2.645,0,0,1,332.952,625.369Z" transform="translate(-20770.826 -19724.205)" fill="#04044b"/>
    <path id="Path_3002" data-name="Path 3002" d="M237.053,610.883c-.052-.864-.11-1.756-.177-2.685,3.378-8.435,94.021,6.5,95.55,16.28,0,.9-.043,1.767-.107,2.617C328.617,617.441,242.5,603.247,237.053,610.883Z" transform="translate(-20770.475 -19723.615)" fill="#383838" opacity="0.2"/>
  </g>
</svg>
