<svg width="30" height="26" viewBox="0 0 30 26" fill="none" xmlns="http://www.w3.org/2000/svg">
<path d="M14.4181 13.8099C14.4821 13.9054 14.5687 13.9836 14.6701 14.0378C14.7715 14.0919 14.8847 14.1202 14.9996 14.1202C15.1146 14.1202 15.2278 14.0919 15.3292 14.0378C15.4306 13.9836 15.5171 13.9054 15.5811 13.8099L19.7811 8.27388C19.8627 8.20785 19.9194 8.11601 19.9418 8.01348C19.9643 7.91095 19.9511 7.80384 19.9045 7.70977C19.858 7.61571 19.7808 7.54031 19.6856 7.49598C19.5905 7.45165 19.4831 7.44103 19.3811 7.46587H17.7731C17.5638 7.46587 17.363 7.38278 17.2149 7.23484C17.0667 7.08691 16.9834 6.88622 16.9831 6.67688V2.11087C16.9829 1.86192 16.8839 1.62323 16.7078 1.44719C16.5318 1.27115 16.2931 1.17214 16.0441 1.17188H13.9561C13.7072 1.17214 13.4685 1.27115 13.2925 1.44719C13.1164 1.62323 13.0174 1.86192 13.0171 2.11087V6.67688C13.0169 6.88622 12.9335 7.08691 12.7854 7.23484C12.6373 7.38278 12.4365 7.46587 12.2271 7.46587H10.6191C10.5174 7.44211 10.4107 7.45343 10.3163 7.49798C10.2218 7.54254 10.1452 7.61772 10.0988 7.71132C10.0525 7.80491 10.0392 7.91142 10.061 8.01355C10.0829 8.11567 10.1386 8.20742 10.2191 8.27388L14.4181 13.8099Z" fill="#00ACC5" stroke="#00ACC5"/>
<path d="M25.349 16.4775V21.6945H4.65102V16.4775H0.999023V23.6325C1.02763 23.9743 1.1896 24.291 1.4499 24.5143C1.7102 24.7375 2.04792 24.8493 2.39002 24.8255H27.61C27.9518 24.8488 28.289 24.7367 28.5489 24.5135C28.8087 24.2903 28.9704 23.9739 28.999 23.6325V16.4775H25.349Z" fill="#00ACC5" stroke="#00ACC5"/>
</svg>
