<svg width="24" height="20" viewBox="0 0 24 20" fill="none" xmlns="http://www.w3.org/2000/svg">
<path d="M24.001 2.40098C23.9991 1.76502 23.7457 1.15565 23.296 0.70596C22.8463 0.256273 22.2369 0.00282335 21.601 0.000976562H2.40098C1.76503 0.00282335 1.15565 0.256273 0.70596 0.70596C0.256273 1.15565 0.00282335 1.76502 0.000976562 2.40098V16.801C0.00282335 17.4369 0.256273 18.0463 0.70596 18.496C1.15565 18.9457 1.76503 19.1991 2.40098 19.201H21.601C22.2369 19.1991 22.8463 18.9457 23.296 18.496C23.7457 18.0463 23.9991 17.4369 24.001 16.801V2.40098ZM21.601 2.40098L12.001 8.40098L2.40098 2.40098H21.601ZM21.601 16.801H2.40098V4.80098L12.001 10.801L21.601 4.80098V16.801Z" fill="white"/>
</svg>
