<svg xmlns="http://www.w3.org/2000/svg" width="354.425" height="28" viewBox="0 0 354.425 28">
  <g id="Logo_GMOJP" data-name="Logo GMOJP" transform="translate(-78.46 -23.98)">
    <g id="Group_128" data-name="Group 128" transform="translate(222.623 24.305)">
      <path id="Path_51" data-name="Path 51" d="M398.469,50.045c-.573-.673-1.188-1.422-1.837-2.229s-1.327-1.666-2.028-2.553-1.379-1.742-2.028-2.558-1.241-1.556-1.766-2.234c-.406-.525-.749-.959-1.021-1.3A13.555,13.555,0,0,0,391.9,38.6a10.135,10.135,0,0,0,2.553-1.341,7.8,7.8,0,0,0,2.028-2.2,5.96,5.96,0,0,0,.84-3.207,6.057,6.057,0,0,0-.644-2.916,5.245,5.245,0,0,0-1.761-1.895,7.583,7.583,0,0,0-2.568-1.026,18.332,18.332,0,0,0-5.207-.21,30.818,30.818,0,0,1-4.252.038c-.7-.038-1.413-.081-2.138-.129a.246.246,0,0,0-.157.057.2.2,0,0,0-.062.157q.115,2.477.205,4.863c.062,1.594.1,3.231.1,4.858v6.462c0,1.627-.033,3.269-.1,4.878s-.129,3.179-.205,4.734a.2.2,0,0,0,.062.157.2.2,0,0,0,.162.057,22.147,22.147,0,0,1,3.646,0,.205.205,0,0,0,.224-.215q-.115-2.327-.205-4.734c-.062-1.584-.1-3.226-.1-4.878V39.574h1.131c.778.807,1.642,1.8,2.577,2.949.959,1.184,1.914,2.391,2.835,3.584s1.78,2.339,2.534,3.379,1.332,1.842,1.708,2.367a.208.208,0,0,0,.2.086,7.542,7.542,0,0,1,1.06-.072h2.219a8.368,8.368,0,0,1,1.1.072h.029a.207.207,0,0,0,.148-.353Q399.328,51.057,398.469,50.045Zm-5.536-15.134a5.292,5.292,0,0,1-1.68,1.7,6.779,6.779,0,0,1-2.243.892,11.677,11.677,0,0,1-2.382.258c-.5,0-.955-.014-1.36-.038a7.182,7.182,0,0,1-.95-.115V35.637c0-1.355.024-2.716.076-4.052l.143-3.918c.363-.043.792-.076,1.279-.11.568-.038,1.293-.057,2.167-.057a9.893,9.893,0,0,1,1.952.2,5.268,5.268,0,0,1,1.809.74,4.18,4.18,0,0,1,1.341,1.451,4.672,4.672,0,0,1,.52,2.319A5.119,5.119,0,0,1,392.933,34.911Z" transform="translate(-380.529 -25.209)" fill="#fff"/>
      <path id="Path_52" data-name="Path 52" d="M449.661,25.7a3.883,3.883,0,0,1-1.79.124c-.248-.038-.511-.081-.783-.129a.229.229,0,0,0-.181.052.205.205,0,0,0-.062.177,37.616,37.616,0,0,1,.186,3.956c.024,1.919.038,4.687.038,8.228,0,.773-.014,1.627-.038,2.549a21.49,21.49,0,0,1-.258,2.754,12.777,12.777,0,0,1-.721,2.625,7.051,7.051,0,0,1-1.37,2.191,6.458,6.458,0,0,1-2.238,1.527,8.721,8.721,0,0,1-3.393.587,10.481,10.481,0,0,1-3.465-.5,6.478,6.478,0,0,1-2.3-1.346,5.919,5.919,0,0,1-1.4-2,11.1,11.1,0,0,1-.721-2.434,18.378,18.378,0,0,1-.258-2.639c-.024-.9-.038-1.79-.038-2.644,0-1.408.014-2.773.038-4.052.024-1.3.062-2.525.114-3.641s.1-2.133.148-3.021.1-1.608.148-2.152a.213.213,0,0,0-.067-.172.218.218,0,0,0-.177-.052q-.408.072-.8.129a6.772,6.772,0,0,1-1.732,0c-.348-.038-.673-.081-.964-.129a.222.222,0,0,0-.172.048.214.214,0,0,0-.072.162c.048,1.126.1,2.506.148,4.128s.076,3.508.076,5.593c0,.935-.033,1.871-.1,2.787s-.1,1.971-.1,3.15c0,3.723.878,6.491,2.615,8.223s4.539,2.615,8.338,2.615a13.522,13.522,0,0,0,4.6-.725,8.925,8.925,0,0,0,3.4-2.152,9.738,9.738,0,0,0,2.133-3.455,13.757,13.757,0,0,0,.783-4.577c.024-1.379.062-2.811.115-4.262s.1-2.892.148-4.281c.048-1.37.115-2.682.186-3.9s.148-2.262.224-3.131a.21.21,0,0,0-.076-.177A.183.183,0,0,0,449.661,25.7Z" transform="translate(-404.999 -25.196)" fill="#fff"/>
      <path id="Path_53" data-name="Path 53" d="M506.207,25.156a5.132,5.132,0,0,1-1.15.181,5.283,5.283,0,0,1-1.227-.181.211.211,0,0,0-.181.043.215.215,0,0,0-.076.172c.124,2.21.205,4.577.243,7.035s.057,5.045.057,7.679V44.7c-1.064-1.074-2.3-2.358-3.68-3.832q-2.312-2.463-4.882-5.221t-5.183-5.6q-2.613-2.835-4.906-5.317a.206.206,0,0,0-.153-.067h-.6a.2.2,0,0,0-.148.067.225.225,0,0,0-.057.153c.048.84.081,2.138.1,3.861s.019,3.794.019,6.2c0,.816-.014,1.737-.038,2.811q-.036,1.575-.1,3.231c-.038,1.079-.086,2.191-.148,3.3s-.119,2.124-.167,3.064-.1,1.742-.167,2.415-.119,1.126-.167,1.37a.2.2,0,0,0,.053.181.217.217,0,0,0,.177.067,12.031,12.031,0,0,1,2.654,0,.2.2,0,0,0,.229-.229q-.036-.294-.072-1.131c-.024-.563-.052-1.222-.076-1.971s-.052-1.565-.076-2.444-.043-1.737-.057-2.591l-.048-2.444c-.014-.773-.019-1.427-.019-1.952,0-2.067.014-3.637.038-4.806q.029-1.374.057-2.319c3.126,3.317,6.3,6.7,9.431,10.065,3.236,3.47,6.328,6.911,9.2,10.232a.2.2,0,0,0,.157.072h.525a.2.2,0,0,0,.205-.205V50.417c0-.6,0-1.312-.019-2.129s-.024-1.689-.038-2.63l-.038-2.8c-.014-.926-.019-1.814-.019-2.663V37.947c0-.73.024-1.7.076-2.883q.072-1.8.167-3.68t.186-3.532c.062-1.117.119-1.928.167-2.472a.207.207,0,0,0-.072-.177A.184.184,0,0,0,506.207,25.156Z" transform="translate(-434.404 -24.66)" fill="#fff"/>
      <path id="Path_54" data-name="Path 54" d="M552.332,37.819a16.368,16.368,0,0,0-2.873-1.351,21.974,21.974,0,0,1-2.811-1.227,7.356,7.356,0,0,1-2.138-1.661,3.9,3.9,0,0,1-.83-2.644,4.734,4.734,0,0,1,.339-1.8,4.044,4.044,0,0,1,.964-1.413,4.447,4.447,0,0,1,1.475-.916,5.2,5.2,0,0,1,1.861-.325,3.974,3.974,0,0,1,1.713.339,4.664,4.664,0,0,1,1.241.845,4.338,4.338,0,0,1,.826,1.093,10.6,10.6,0,0,1,.5,1.122.207.207,0,0,0,.2.138h.453a.2.2,0,0,0,.2-.167c.148-.716.3-1.317.444-1.785a7.877,7.877,0,0,1,.549-1.317.206.206,0,0,0-.052-.258,8,8,0,0,0-2.506-1.37,10.233,10.233,0,0,0-3.183-.444,10.428,10.428,0,0,0-3.451.539,8.046,8.046,0,0,0-2.644,1.5,6.5,6.5,0,0,0-1.69,2.31,7.358,7.358,0,0,0-.582,2.959,6.5,6.5,0,0,0,.916,3.646,7.753,7.753,0,0,0,2.257,2.219,14.7,14.7,0,0,0,2.878,1.427,25.514,25.514,0,0,1,2.816,1.231,7.2,7.2,0,0,1,2.138,1.642,3.846,3.846,0,0,1,.83,2.606,5.859,5.859,0,0,1-.363,2.052,4.764,4.764,0,0,1-2.649,2.778,5.36,5.36,0,0,1-2.152.415,6.132,6.132,0,0,1-2.109-.344,6.238,6.238,0,0,1-1.656-.892,6.017,6.017,0,0,1-1.2-1.217h0a7.419,7.419,0,0,1-.788-1.332.2.2,0,0,0-.191-.124h-.449a.207.207,0,0,0-.205.186c-.072.716-.157,1.312-.243,1.766a8.726,8.726,0,0,1-.458,1.522.2.2,0,0,0,.062.234,10.443,10.443,0,0,0,2.472,1.437,9.882,9.882,0,0,0,3.856.635,11.752,11.752,0,0,0,3.961-.63,8.217,8.217,0,0,0,2.968-1.814,7.918,7.918,0,0,0,1.852-2.759,8.934,8.934,0,0,0,.635-3.346,5.823,5.823,0,0,0-.921-3.427A7.366,7.366,0,0,0,552.332,37.819Z" transform="translate(-463.729 -24.67)" fill="#fff"/>
      <path id="Path_55" data-name="Path 55" d="M600.308,25.7a5.545,5.545,0,0,1-2.849,0,.208.208,0,0,0-.229.115c-.5,1.074-1.045,2.191-1.613,3.322s-1.179,2.276-1.8,3.393-1.255,2.234-1.876,3.3c-.554.95-1.093,1.847-1.613,2.673-1.222-2.143-2.41-4.252-3.532-6.276-1.155-2.09-2.315-4.248-3.436-6.419a.212.212,0,0,0-.215-.11c-.348.052-.692.1-1.026.129a9.514,9.514,0,0,1-2.019,0c-.334-.038-.678-.081-1.026-.129a.205.205,0,0,0-.2.091.211.211,0,0,0,0,.224q.372.6,1.088,1.78c.477.787,1.007,1.68,1.594,2.668s1.208,2.028,1.861,3.121,1.269,2.129,1.861,3.116,1.126,1.89,1.618,2.706c.472.783.83,1.389,1.078,1.809,0,1.981-.014,3.918-.038,5.765s-.115,3.422-.262,4.715a.212.212,0,0,0,.057.167.209.209,0,0,0,.148.062h.019a22.147,22.147,0,0,1,3.646,0,.205.205,0,0,0,.167-.062.2.2,0,0,0,.057-.167c-.048-.515-.091-1.193-.129-2.076-.038-.864-.072-1.8-.1-2.816s-.043-2.047-.057-3.1q-.022-1.546-.019-2.916c.391-.759.864-1.623,1.4-2.558.549-.959,1.193-2.052,1.914-3.245s1.561-2.539,2.515-4.014,2.028-3.131,3.231-4.959a.21.21,0,0,0,0-.229A.232.232,0,0,0,600.308,25.7Z" transform="translate(-484.196 -25.199)" fill="#fff"/>
      <path id="Path_56" data-name="Path 56" d="M641.377,37.819a16.365,16.365,0,0,0-2.873-1.351,21.966,21.966,0,0,1-2.811-1.227,7.355,7.355,0,0,1-2.138-1.661,3.9,3.9,0,0,1-.831-2.644,4.7,4.7,0,0,1,.339-1.8,4.044,4.044,0,0,1,.964-1.413,4.447,4.447,0,0,1,1.475-.916,5.2,5.2,0,0,1,1.861-.325,3.959,3.959,0,0,1,1.713.339,4.665,4.665,0,0,1,1.241.845,4.342,4.342,0,0,1,.826,1.093,9.8,9.8,0,0,1,.5,1.122.207.207,0,0,0,.2.138h.449a.2.2,0,0,0,.2-.167c.148-.716.3-1.312.444-1.785a7.887,7.887,0,0,1,.549-1.317.206.206,0,0,0-.052-.258,8.1,8.1,0,0,0-2.506-1.37,10.233,10.233,0,0,0-3.183-.444,10.428,10.428,0,0,0-3.451.539,8.049,8.049,0,0,0-2.644,1.5,6.5,6.5,0,0,0-1.689,2.31,7.358,7.358,0,0,0-.582,2.959,6.5,6.5,0,0,0,.916,3.646,7.753,7.753,0,0,0,2.257,2.219,14.7,14.7,0,0,0,2.878,1.427,25.906,25.906,0,0,1,2.816,1.231,7.206,7.206,0,0,1,2.138,1.642,3.846,3.846,0,0,1,.83,2.606,5.855,5.855,0,0,1-.363,2.052,4.964,4.964,0,0,1-1.026,1.661,4.849,4.849,0,0,1-1.623,1.117,5.36,5.36,0,0,1-2.152.415,6.131,6.131,0,0,1-2.109-.344,6.234,6.234,0,0,1-1.656-.892,6.012,6.012,0,0,1-1.2-1.217h0a7.408,7.408,0,0,1-.788-1.332.2.2,0,0,0-.191-.124h-.449a.207.207,0,0,0-.205.186c-.072.716-.157,1.312-.243,1.766a8.6,8.6,0,0,1-.458,1.522.2.2,0,0,0,.062.234,10.441,10.441,0,0,0,2.472,1.437,9.883,9.883,0,0,0,3.856.635,11.752,11.752,0,0,0,3.961-.63,8.22,8.22,0,0,0,2.969-1.814,7.985,7.985,0,0,0,1.852-2.759,8.931,8.931,0,0,0,.635-3.346,5.823,5.823,0,0,0-.921-3.427A7.413,7.413,0,0,0,641.377,37.819Z" transform="translate(-510.274 -24.67)" fill="#fff"/>
      <path id="Path_57" data-name="Path 57" d="M689.055,25.766a.182.182,0,0,0-.167-.076c-1.651.052-3.269.1-4.844.134-3.15.076-6.534.076-9.683,0q-2.37-.057-4.844-.134a.188.188,0,0,0-.167.076.208.208,0,0,0-.038.181,5.1,5.1,0,0,1,.181,1.117,4.384,4.384,0,0,1-.181,1.145.2.2,0,0,0,.043.191.209.209,0,0,0,.186.067c.515-.072,1.112-.138,1.771-.186s1.351-.1,2.062-.129,1.413-.062,2.133-.076c.64-.01,1.255-.019,1.842-.019.072,2.5.1,5.049.1,7.569v6.462c0,1.627-.033,3.269-.1,4.878s-.129,3.179-.205,4.734a.2.2,0,0,0,.062.157.2.2,0,0,0,.143.057h.019a22.147,22.147,0,0,1,3.646,0,.206.206,0,0,0,.224-.215q-.115-2.327-.205-4.734c-.062-1.594-.1-3.236-.1-4.878V35.631c0-2.515.038-5.059.1-7.569.587,0,1.2.01,1.842.019.721.014,1.437.038,2.133.076s1.4.081,2.062.129,1.26.115,1.771.186a.213.213,0,0,0,.186-.067.2.2,0,0,0,.043-.191,4.275,4.275,0,0,1-.181-1.107,5.092,5.092,0,0,1,.181-1.15A.206.206,0,0,0,689.055,25.766Z" transform="translate(-531.484 -25.198)" fill="#fff"/>
      <path id="Path_58" data-name="Path 58" d="M734.056,50.746c0-.172,0-.363.019-.573a2.235,2.235,0,0,1,.086-.535.2.2,0,0,0-.048-.2.211.211,0,0,0-.2-.062,16.538,16.538,0,0,1-2.1.277c-.807.062-1.675.115-2.587.148s-1.847.057-2.792.057H724.01c-.019-.468-.038-1.1-.048-1.9-.014-.926-.019-2.1-.019-3.527V40.719c0-.4,0-.725.019-.988.01-.186.014-.367.019-.535.425,0,.959.01,1.613.019.764.014,1.58.024,2.444.038s1.732.043,2.582.1,1.623.115,2.262.186a.208.208,0,0,0,.177-.067.223.223,0,0,0,.052-.181A5.615,5.615,0,0,1,733,38.2a5.82,5.82,0,0,1,.11-1.126.2.2,0,0,0-.048-.177.194.194,0,0,0-.172-.067c-.549.052-1.131.1-1.742.129s-1.284.076-2.009.115c-.745.038-1.551.072-2.4.1-.811.024-1.737.038-2.754.038,0-.463-.01-1.1-.019-1.9q-.021-1.389-.019-2.854c0-.916.019-1.747.057-2.467.033-.668.062-1.365.086-2.1,1.136,0,2.129.019,2.95.057.864.038,1.68.081,2.42.134s1.441.1,2.1.148,1.4.1,2.2.153a.209.209,0,0,0,.215-.248,5.447,5.447,0,0,1,0-2.176.209.209,0,0,0-.215-.248q-1.69.079-3.341.134c-2.2.076-4.472.076-6.7,0q-1.668-.057-3.36-.134a.2.2,0,0,0-.158.062.212.212,0,0,0-.062.157q.115,2.405.205,4.806c.062,1.608.1,3.245.1,4.878v6.462c0,1.627-.033,3.264-.1,4.858s-.129,3.188-.205,4.787a.212.212,0,0,0,.22.22c1.131-.048,2.281-.076,3.412-.076h6.82c1.117,0,2.243.024,3.355.076h.01a.207.207,0,0,0,.2-.267A3.313,3.313,0,0,1,734.056,50.746Z" transform="translate(-558.064 -25.208)" fill="#fff"/>
      <path id="Path_59" data-name="Path 59" d="M787.162,44.858q-.372-3.171-.749-6.424c-.253-2.2-.5-4.419-.735-6.61-.239-2.238-.5-4.582-.768-6.973a.206.206,0,0,0-.205-.181h-.487a.209.209,0,0,0-.181.11q-.938,1.725-2.028,3.718t-2.2,4.061q-1.109,2.069-2.181,4.076t-2.009,3.737c-.625,1.155-1.179,2.176-1.651,3.064-.372.7-.678,1.265-.912,1.709-1.847-3.388-3.651-6.748-5.355-9.994-1.756-3.341-3.522-6.829-5.24-10.366a.2.2,0,0,0-.186-.115h-.64a.207.207,0,0,0-.205.186c-.2,2-.439,4.133-.716,6.328s-.577,4.467-.9,6.739-.663,4.553-1.016,6.8-.687,4.4-1.017,6.424a.206.206,0,0,0,.057.177.2.2,0,0,0,.177.062,11.634,11.634,0,0,1,2.577,0,.219.219,0,0,0,.162-.048.21.21,0,0,0,.072-.153c0-1,.062-2.291.186-3.837.124-1.565.277-3.245.449-4.992s.368-3.541.582-5.369q.279-2.4.515-4.486c1.58,3.155,3.16,6.257,4.691,9.216,1.637,3.159,3.221,6.352,4.715,9.483a.206.206,0,0,0,.186.119h.339a.209.209,0,0,0,.191-.124c1.5-3.393,3.093-6.682,4.749-9.774,1.575-2.945,3.2-5.956,4.844-8.958.372,3.064.692,6.1.95,9.049q.415,4.7.826,9.693a.211.211,0,0,0,.081.148.219.219,0,0,0,.162.038,5.189,5.189,0,0,1,.849-.072H786.9a5.19,5.19,0,0,1,.849.072c.01,0,.024,0,.034,0a.2.2,0,0,0,.143-.057.21.21,0,0,0,.062-.177C787.687,49.058,787.41,46.943,787.162,44.858Z" transform="translate(-577.733 -24.665)" fill="#fff"/>
    </g>
    <g id="Group_130" data-name="Group 130" transform="translate(78.46 23.98)">
      <path id="Path_60" data-name="Path 60" d="M197.379,50.173h1.857a.347.347,0,0,0,.262-.148l7.684-12.58,4.181,14.394a.237.237,0,0,0,.22.162h8.066a.117.117,0,0,0,.119-.162L211.258,24.9a.248.248,0,0,0-.224-.162H208a.348.348,0,0,0-.262.143L197.379,40.952,187.018,24.888a.35.35,0,0,0-.262-.143h-3.031a.255.255,0,0,0-.224.162l-8.509,26.936a.117.117,0,0,0,.119.162h8.066a.242.242,0,0,0,.22-.162l4.181-14.394,7.684,12.58a.339.339,0,0,0,.262.148h1.857Z" transform="translate(-128.917 -24.377)" fill="#fff"/>
      <g id="Group_129" data-name="Group 129" transform="translate(0 0.005)">
        <path id="Path_61" data-name="Path 61" d="M124.9,36.365v0a.174.174,0,0,0-.167-.134h-22.98a2.2,2.2,0,1,0,0,4.4h13.654c-1.627,4.3-7.125,7.459-13.654,7.459-7.813,0-14.146-4.52-14.146-10.1s6.333-10.1,14.146-10.1a16.946,16.946,0,0,1,10.686,3.484c.01.01.019.014.029.024a.161.161,0,0,0,.1.029h9.392a.173.173,0,0,0,.134-.282.066.066,0,0,1-.014-.019c-3.995-4.257-11.6-7.135-20.312-7.135-12.872,0-23.3,6.266-23.3,14s10.433,14,23.3,14,23.3-6.266,23.3-14A9.59,9.59,0,0,0,124.9,36.365Z" transform="translate(-78.46 -23.99)" fill="#fff"/>
      </g>
      <path id="Path_62" data-name="Path 62" d="M291.024,23.98c-12.872,0-23.3,6.266-23.3,14s10.433,14,23.3,14,23.3-6.266,23.3-14S303.9,23.98,291.024,23.98Zm0,24.1c-7.813,0-14.146-4.52-14.146-10.1s6.333-10.1,14.146-10.1,14.146,4.52,14.146,10.1S298.837,48.077,291.024,48.077Z" transform="translate(-177.395 -23.98)" fill="#fff"/>
    </g>
  </g>
</svg>
