<svg id="無料のビルアイコン素材" xmlns="http://www.w3.org/2000/svg" xmlns:xlink="http://www.w3.org/1999/xlink" width="100" height="100" viewBox="0 0 100 100">
  <defs>
    <linearGradient id="linear-gradient" x1="0.458" y1="0.444" x2="0.86" y2="0.938" gradientUnits="objectBoundingBox">
      <stop offset="0" stop-color="#005bac"/>
      <stop offset="1" stop-color="#00acc5"/>
    </linearGradient>
  </defs>
  <path id="Path_3857" data-name="Path 3857" d="M0,0V100H100V0ZM90.2,90.253H59.105V78.911H40.894V90.253H9.8V9.747H90.2Z" fill="url(#linear-gradient)"/>
  <rect id="Rectangle_6313" data-name="Rectangle 6313" width="7.705" height="7.663" transform="translate(15.47 18.494)" fill="url(#linear-gradient)"/>
  <rect id="Rectangle_6314" data-name="Rectangle 6314" width="7.705" height="7.663" transform="translate(30.88 18.494)" fill="url(#linear-gradient)"/>
  <rect id="Rectangle_6315" data-name="Rectangle 6315" width="7.705" height="7.663" transform="translate(46.29 18.494)" fill="url(#linear-gradient)"/>
  <rect id="Rectangle_6316" data-name="Rectangle 6316" width="7.705" height="7.663" transform="translate(61.7 18.494)" fill="url(#linear-gradient)"/>
  <rect id="Rectangle_6317" data-name="Rectangle 6317" width="7.705" height="7.663" transform="translate(77.11 18.494)" fill="url(#linear-gradient)"/>
  <rect id="Rectangle_6318" data-name="Rectangle 6318" width="7.705" height="7.663" transform="translate(15.47 33.821)" fill="url(#linear-gradient)"/>
  <rect id="Rectangle_6319" data-name="Rectangle 6319" width="7.705" height="7.663" transform="translate(30.88 33.821)" fill="url(#linear-gradient)"/>
  <rect id="Rectangle_6320" data-name="Rectangle 6320" width="7.705" height="7.663" transform="translate(46.29 33.821)" fill="url(#linear-gradient)"/>
  <rect id="Rectangle_6321" data-name="Rectangle 6321" width="7.705" height="7.663" transform="translate(61.7 33.821)" fill="url(#linear-gradient)"/>
  <rect id="Rectangle_6322" data-name="Rectangle 6322" width="7.705" height="7.663" transform="translate(77.11 33.821)" fill="url(#linear-gradient)"/>
  <rect id="Rectangle_6323" data-name="Rectangle 6323" width="7.705" height="7.663" transform="translate(15.47 49.147)" fill="url(#linear-gradient)"/>
  <rect id="Rectangle_6324" data-name="Rectangle 6324" width="7.705" height="7.663" transform="translate(30.88 49.147)" fill="url(#linear-gradient)"/>
  <rect id="Rectangle_6325" data-name="Rectangle 6325" width="7.705" height="7.663" transform="translate(46.29 49.147)" fill="url(#linear-gradient)"/>
  <rect id="Rectangle_6326" data-name="Rectangle 6326" width="7.705" height="7.663" transform="translate(61.7 49.147)" fill="url(#linear-gradient)"/>
  <rect id="Rectangle_6327" data-name="Rectangle 6327" width="7.705" height="7.663" transform="translate(77.11 49.147)" fill="url(#linear-gradient)"/>
  <rect id="Rectangle_6328" data-name="Rectangle 6328" width="7.705" height="7.663" transform="translate(15.47 64.473)" fill="url(#linear-gradient)"/>
  <rect id="Rectangle_6329" data-name="Rectangle 6329" width="7.705" height="7.663" transform="translate(30.88 64.473)" fill="url(#linear-gradient)"/>
  <rect id="Rectangle_6330" data-name="Rectangle 6330" width="7.705" height="7.663" transform="translate(46.29 64.473)" fill="url(#linear-gradient)"/>
  <rect id="Rectangle_6331" data-name="Rectangle 6331" width="7.705" height="7.663" transform="translate(61.7 64.473)" fill="url(#linear-gradient)"/>
  <rect id="Rectangle_6332" data-name="Rectangle 6332" width="7.705" height="7.663" transform="translate(77.11 64.473)" fill="url(#linear-gradient)"/>
</svg>
