<svg xmlns="http://www.w3.org/2000/svg" xmlns:xlink="http://www.w3.org/1999/xlink" width="162.106" height="100" viewBox="0 0 162.106 100">
  <defs>
    <linearGradient id="linear-gradient" x1="0.458" y1="0.444" x2="0.86" y2="0.938" gradientUnits="objectBoundingBox">
      <stop offset="0" stop-color="#005bac"/>
      <stop offset="1" stop-color="#00acc5"/>
    </linearGradient>
  </defs>
  <g id="人物アイコン_チーム" data-name="人物アイコン　チーム" transform="translate(0.001 -98.078)">
    <path id="Path_3854" data-name="Path 3854" d="M46.722,205.87c-.025-.252-.1-.485-.1-.737v-2.162a9.116,9.116,0,0,1,.5-3.008,57.6,57.6,0,0,0,7.935-15.687c-2.79-5.887-5.323-13.214-5.323-20.476a45.761,45.761,0,0,1,.3-4.927,19.086,19.086,0,0,0-13.976-5.966c-11.205,0-20.3,9.142-20.3,23.35,0,11.368,9.251,23.706,9.251,23.706a9.377,9.377,0,0,1,.495,3.008v2.162a6.9,6.9,0,0,1-4.027,6.273l-14.688,6a11.543,11.543,0,0,0-6.52,8.4l-.252,3.23a6.049,6.049,0,0,0,6.031,6.51H30.055l.984-12.65.064-.341a20.7,20.7,0,0,1,11.71-15.094Z" transform="translate(0 -37.469)" fill="url(#linear-gradient)"/>
    <path id="Path_3855" data-name="Path 3855" d="M392.9,225.806a11.526,11.526,0,0,0-6.515-8.4l-14.7-6a6.892,6.892,0,0,1-4.017-6.273V202.97a9.119,9.119,0,0,1,.5-3.008s9.246-12.338,9.246-23.706c0-14.208-9.088-23.35-20.313-23.35a19.091,19.091,0,0,0-13.976,5.976,44.225,44.225,0,0,1,.3,4.917c0,7.257-2.528,14.584-5.313,20.471a57.457,57.457,0,0,0,7.94,15.692,9.38,9.38,0,0,1,.5,3.008v2.162c0,.252-.084.485-.109.737l3.641,1.484a20.824,20.824,0,0,1,11.982,15.192l.06.346.98,12.655h24.018a6.049,6.049,0,0,0,6.025-6.51Z" transform="translate(-231.065 -37.469)" fill="url(#linear-gradient)"/>
    <path id="Path_3856" data-name="Path 3856" d="M195.964,176.133l-17.78-7.267a8.356,8.356,0,0,1-4.863-7.589v-2.622a11.007,11.007,0,0,1,.609-3.641s11.181-14.92,11.181-28.683c0-17.2-11-28.253-24.567-28.253s-24.567,11.057-24.567,28.253c0,13.763,11.19,28.683,11.19,28.683a11.266,11.266,0,0,1,.609,3.641v2.622a8.373,8.373,0,0,1-4.873,7.589l-17.78,7.267a13.917,13.917,0,0,0-7.886,10.166l-.915,11.779h88.444L203.86,186.3A13.955,13.955,0,0,0,195.964,176.133Z" transform="translate(-79.493)" fill="url(#linear-gradient)"/>
  </g>
</svg>
