<svg xmlns="http://www.w3.org/2000/svg" xmlns:xlink="http://www.w3.org/1999/xlink" width="100.001" height="100" viewBox="0 0 100.001 100">
  <defs>
    <linearGradient id="linear-gradient" x1="0.458" y1="0.444" x2="0.86" y2="0.938" gradientUnits="objectBoundingBox">
      <stop offset="0" stop-color="#005bac"/>
      <stop offset="1" stop-color="#00acc5"/>
    </linearGradient>
  </defs>
  <g id="地球アイコン9" transform="translate(0 -0.002)">
    <path id="Path_3851" data-name="Path 3851" d="M96.9,32.643a49.393,49.393,0,0,0-3.123-6.809,50.054,50.054,0,0,0-8.424-11.184l-.228-.229h-.005c-.094-.093-.183-.183-.282-.274l-.007,0c-.283-.282-.576-.563-.871-.825A50.012,50.012,0,0,0,28.716,4.749c-.443.209-.885.425-1.319.646A50.15,50.15,0,0,0,2.552,34.2c-.125.375-.248.756-.363,1.136l-.015.042c-.079.257-.155.524-.229.788-.184.631-.353,1.262-.506,1.905-.061.222-.11.445-.16.671A50.057,50.057,0,0,0,32.826,96.973c.215.079.434.158.656.231,1.318.465,2.667.873,4.035,1.225.239.061.482.121.726.174A50.008,50.008,0,0,0,85.352,85.355a48.912,48.912,0,0,0,4.6-5.3A50.033,50.033,0,0,0,96.9,32.643ZM18.514,81.491A44.609,44.609,0,0,1,5.97,43.321c1.517,1.06,4.284,2.544,4.319,2.552a1.214,1.214,0,0,0,.367.05,5.173,5.173,0,0,0,.771-.085,6.221,6.221,0,0,1,.831-.087,1.123,1.123,0,0,1,.2.014c.1.046.272.437.361.646a1.917,1.917,0,0,0,.763,1.049,8.717,8.717,0,0,0,2.287.4c.379.042.767.088.966.121a4.161,4.161,0,0,1,.225.7,2.536,2.536,0,0,0,.846,1.62,26.492,26.492,0,0,1,2.513,2.289.5.5,0,0,0,.353.146.451.451,0,0,0,.248-.07c.06-.034,1.372-.8,1.831-1.09a1.52,1.52,0,0,1,.418.27c.024.721.115,3.1.12,3.587A10.474,10.474,0,0,1,21.2,57.708a.487.487,0,0,0-.18.358c0,.136-.124,3.285,0,4.55.13,1.282,2.234,3.787,2.8,4.438A25.4,25.4,0,0,0,24.961,69.8a49.177,49.177,0,0,0,4.394,3.464v7.459a3.354,3.354,0,0,0,.587,1.824,1.461,1.461,0,0,1,.284.66v5.224a3.319,3.319,0,0,0,.472,1.707A44.762,44.762,0,0,1,18.514,81.491Zm70.044-49.9a6.625,6.625,0,0,0-2.239-.87l-1-.127c-.5-.994-.248-3.232-1.989-2.736S75.87,29.355,74.626,29.6s-2.736,2.237-3.73,3.73-3.732,6.22-4.229,6.966-.746,5.473-.746,6.715,5.474,6.47,7.214,6.718,6.467-1,7.712-1.243,1.989,1.491,2.985,1.491,2.239.5,1.244,1.993-1,2.235,0,3.23,2.985,4.728,1.741,7.713a5.37,5.37,0,0,0,.5,5.72,7.571,7.571,0,0,1,.453.961,45.2,45.2,0,0,1-6.28,7.891A44.624,44.624,0,0,1,38.139,92.935c.016-.062.03-.132.041-.2a1.347,1.347,0,0,0-.329-1.059,1.482,1.482,0,0,0,.661-.633,2.5,2.5,0,0,0,.24-1.4l.242,0a3.146,3.146,0,0,0,1.841-.439c.88-.626.9-1.95.731-2.869a2,2,0,0,0,.19.077.577.577,0,0,0,.219.034c.8,0,1.677-1.431,1.914-2.378a19.264,19.264,0,0,1,.748-1.865c.76-1.766,1.218-2.875,1.129-3.427a4.218,4.218,0,0,1,2.59-1.677c1.439-.287,1.951-.815,2.493-2.584a18.293,18.293,0,0,0,.638-5.67,7.527,7.527,0,0,1,1.378-2.376c.925-1.305,1.488-2.139,1.488-2.79,0-1.5-1.265-2.517-2.215-3.151a8.7,8.7,0,0,0-3.7-.868c-.308-.026-.577-.05-.7-.076s-.313-.24-.472-.408a2.581,2.581,0,0,0-1.559-.966,2.027,2.027,0,0,0-.257-.014,3.916,3.916,0,0,0-1.308.293,3.231,3.231,0,0,1-1.064.261,1.477,1.477,0,0,1-.573-.127A1.227,1.227,0,0,1,43.058,58c.379-.253.738-.811.325-2.076a9.09,9.09,0,0,0-1.054-2.1,3.072,3.072,0,0,0-2.672-1.173c-.428,0-.846.042-1.275.079l-.093,0c-.433,0-.687-.381-1.18-1.187a12.221,12.221,0,0,0-1.029-1.5,4.15,4.15,0,0,0-3.444-1.285c-.155,0-.3,0-.449.006-.124,0-.244,0-.357,0a3.313,3.313,0,0,1-.429-.02,6.224,6.224,0,0,1-1.641-.674,6.115,6.115,0,0,0-1.707-.693l-.124-.009c-.712,0-1.517.826-2.666,2.079-.285.31-.653.711-.847.88-.039-.045-.089-.1-.128-.152a2.115,2.115,0,0,0-1-.787,1.049,1.049,0,0,0-.328-.056,1.554,1.554,0,0,0-.941.421,1.149,1.149,0,0,1-.657.315,1.045,1.045,0,0,1-.482-.147c-.686-.375-.458-1.812-.278-2.965a9.806,9.806,0,0,0,.165-1.449c0-.955-.564-1.059-.8-1.059a1.974,1.974,0,0,0-.712.181,2.951,2.951,0,0,1-.985.231,1.377,1.377,0,0,1-.452-.076c-.284-.093-.409-.192-.429-.251-.07-.191.3-.752.566-1.166.124-.189.254-.388.378-.591.519-.863.788-1.5.512-1.983a.989.989,0,0,0-.93-.443,3.107,3.107,0,0,0-.6.065,2.693,2.693,0,0,1-.488.046,2.865,2.865,0,0,1-.522-.054,2.308,2.308,0,0,0-.329-.042c-.686,0-.77.682-.806.977a1.64,1.64,0,0,1-1.839,1.563c-.081,0-.158,0-.243-.009-1.16-.074-1.653-.9-1.653-2.738a2.482,2.482,0,0,1,.5-1.638c.184-.3.414-.685.692-1.246a3.024,3.024,0,0,1,1.726-1.745c.184-.087.373-.175.568-.287a.752.752,0,0,1,.362-.129.891.891,0,0,1,.254.067,1.85,1.85,0,0,0,.682.141,1.9,1.9,0,0,0,.273-.017,1.47,1.47,0,0,0,1.279-1.166c.021-.05.039-.1.066-.169a1.016,1.016,0,0,0,.149.039,7.2,7.2,0,0,0,2.159.3c.358,0,.617,0,.806.016a4.1,4.1,0,0,0,1.218,3.533,1.721,1.721,0,0,0,1.229.736c1.275,0,1.383-2.148,1.383-4.539,0-1.445.548-1.84,2.169-3L27.06,31a7.908,7.908,0,0,0,1.91-2.085A6.858,6.858,0,0,1,31,26.8a34.037,34.037,0,0,1,3.707-1.823A21.575,21.575,0,0,0,38.5,23.047a2.433,2.433,0,0,0,.516-2.485c-.169-1.057-.119-1.276.3-1.4a19.328,19.328,0,0,1,2.234-.437,17.221,17.221,0,0,0,3.513-.817c1.251-.466,1.541-1.135,1.566-1.617a2.068,2.068,0,0,0-1.273-1.776c-.269-.135-.3-.8-.319-1.381a2.889,2.889,0,0,0-.543-2,1.387,1.387,0,0,0-1.025-.419,4.822,4.822,0,0,0-1.75.51,13.9,13.9,0,0,1-1.438.525.573.573,0,0,1-.144.026c-.195,0-.333-.4-.506-.972-.266-.839-.658-2.094-2.036-2.094a2.575,2.575,0,0,0-.5.05c-1.756.352-2.169,2.235-2.467,3.612a4.147,4.147,0,0,1-.414,1.344c-1.035,0-1.368.66-1.692,1.3a4.657,4.657,0,0,1-.891,1.324,1.182,1.182,0,0,1-.527.361c-.084-.079-.213-.685.329-1.767a1.774,1.774,0,0,0,.169-1.657c-.374-.632-1.258-.674-2.279-.711-.408-.02-.831-.036-1.254-.09-.807-.1-1.019-.305-1.029-.349,0-.02.01-.16.229-.429a44.56,44.56,0,0,1,49.546,2.75,8.321,8.321,0,0,1-.821,1.718,1.538,1.538,0,0,0-.248,1.37,20.494,20.494,0,0,0,2.86-.621,1.21,1.21,0,0,0,.45-.656c.253.214.5.429.744.656-.591.536-1.227,1.1-1.442,1.245-.372.246-1.616.621-2.114.868s1.492,1.121,1.492,1.493,0,2.114-.746,2.237-4.227.126-4.227.126-1.121,3.979-.872,4.353a4.347,4.347,0,0,0,2.861,1.122,16.191,16.191,0,0,0,3.234-1.243l.994-2.238,1.989-2.119s1.493.621,1.991.126a7.138,7.138,0,0,1,1.493-.992s1,1.863,1.617,2.113l.12.054,0,.008q1.078,1.484,2.015,3.058l.006.008v0l.009.022a.594.594,0,0,0,.115.18,45.15,45.15,0,0,1,2.716,5.38A5.5,5.5,0,0,1,88.558,31.595Z" transform="translate(0 0)" fill="url(#linear-gradient)"/>
  </g>
</svg>
