<svg xmlns="http://www.w3.org/2000/svg" xmlns:xlink="http://www.w3.org/1999/xlink" width="136.547" height="100" viewBox="0 0 136.547 100">
  <defs>
    <linearGradient id="linear-gradient" x1="0.458" y1="0.444" x2="0.86" y2="0.938" gradientUnits="objectBoundingBox">
      <stop offset="0" stop-color="#005bac"/>
      <stop offset="1" stop-color="#00acc5"/>
    </linearGradient>
  </defs>
  <g id="円の貯金箱のフリーアイコン" transform="translate(-0.005 -68.524)">
    <path id="Path_3863" data-name="Path 3863" d="M135.109,72.993a2.11,2.11,0,0,0-2.667,1.338,10.677,10.677,0,0,1-3.675,5.521,8.862,8.862,0,0,1-1.375.821,10.334,10.334,0,0,0,.4-2.675,8.21,8.21,0,0,0-1.092-4.2,7.25,7.25,0,0,0-9.86-2.58c-.013.013-.029.008-.042.017h-.008v0h0l-.046.029s0,0-.013.008h0c-.025.017-.038.042-.062.054s-.025.025-.042.038a7.149,7.149,0,0,0-3.379,6.122,7.2,7.2,0,0,0,1.025,3.717h0a10.141,10.141,0,0,0,3.651,3.475c.288.162.588.3.888.442a15.216,15.216,0,0,1-2.342,1.2,15.854,15.854,0,0,1-1.913.617A52.355,52.355,0,0,0,98.7,73.94c-19.24-10.685-44.768-3.584-57.453,4.346-7.888-4.993-14.906-3.688-17.035-3.063l2.9,15.481c-5.8,7.176-10.472,9.576-10.472,9.576L4.927,102.6a4.919,4.919,0,0,0-4.517,6.872L9.4,135.105a4.934,4.934,0,0,0,4.521,2.975l19.223,4.026,8.105,20.4c4.055,8.972,14.906,7.093,15.339-.288l1.738-10.13H86.4s.871,4.509,1.3,8.4c.65,5.855,9.259,13.456,17.944,1.734,10.393-14.027,27.207-46.868,11.451-71.663a19.784,19.784,0,0,0,3.017-1.308,17.774,17.774,0,0,0,3.329-2.359c.342-.313.629-.625.917-.942a.473.473,0,0,0,.075-.008v0c.013,0,.017,0,.025,0s.05,0,.075-.008l0-.008a15.309,15.309,0,0,0,6.747-2.675,14.969,14.969,0,0,0,5.159-7.58A2.116,2.116,0,0,0,135.109,72.993Zm-51.752,37.55v4.838H74.043l-1,1.663v3.992H83.357v5.988H73.043v8.222H66.638v-8.222H56.32v-5.988H66.638v-3.98l-1-1.675H56.32v-6.034H62l-4.721-7.868h6.147l6.405,10.672,6.413-10.672h6.147l-4.721,7.868h5.684v1.2Zm-2.88-24.736a5.013,5.013,0,1,1,5.013-5.013A5.01,5.01,0,0,1,80.477,85.807Zm30.579,31.208a4.425,4.425,0,0,1-4.93-3.846,31.758,31.758,0,0,0-4.855-13.627,23.388,23.388,0,0,0-9.88-8.6,4.418,4.418,0,0,1,3.634-8.055,32.278,32.278,0,0,1,13.618,11.781A40.644,40.644,0,0,1,114.9,112.09,4.425,4.425,0,0,1,111.056,117.015ZM123.2,80.061a6.252,6.252,0,0,1-.959,1.767,6.657,6.657,0,0,1-2.221-.8,5.961,5.961,0,0,1-2.129-1.988v0a3.007,3.007,0,0,1-.433-1.554,3.065,3.065,0,0,1,1.454-2.6,3.045,3.045,0,0,1,4.155,1.067,3.971,3.971,0,0,1,.5,2.042A6.255,6.255,0,0,1,123.2,80.061Z" transform="translate(0)" fill="url(#linear-gradient)"/>
  </g>
</svg>
